<svg width="31" height="32" viewBox="0 0 31 32" fill="none" xmlns="http://www.w3.org/2000/svg">
<path d="M14.7191 23.4751C14.867 22.7668 15.0642 22.0585 15.1629 21.3249C15.2368 20.7431 15.3848 20.566 15.9518 20.4395C17.4259 20.1739 18.8045 19.5103 19.946 18.517C20.5869 17.9664 21.0864 17.2628 21.4006 16.468C21.5732 16.038 21.5239 15.9115 21.0554 15.9115H16.5929C16.0011 15.9115 15.9025 15.8103 15.7792 15.2538C15.6067 14.4949 15.4341 13.7613 15.2615 13.0024C15.1382 12.4964 15.2368 12.3953 15.7299 12.3953H25.0249C25.5427 12.3953 25.6413 12.4712 25.6413 13.0024C25.681 15.8677 24.6144 18.6328 22.6745 20.6944C20.7345 22.7559 18.0785 23.9465 15.2861 24.0063C15.1333 24.0245 14.9785 23.9987 14.8391 23.9316C14.6998 23.8646 14.5814 23.7591 14.4972 23.6269C14.0041 22.9186 13.437 22.2609 13.0672 21.502C13.0179 21.3755 12.9439 21.3755 12.8206 21.4008C12.524 21.4838 12.2352 21.5939 11.9577 21.7297C11.365 22.0673 10.6821 22.2004 10.0099 22.1091C9.83736 22.0838 9.64012 22.0838 9.61547 21.8561C9.59081 21.6285 9.7634 21.5273 9.93598 21.4767C10.6353 21.1957 11.3793 21.0499 12.1303 21.0466C12.4262 21.0466 12.4262 20.9455 12.3029 20.7178C12.1303 20.3636 11.933 20.2878 11.5386 20.4395C10.7445 20.77 9.9036 20.9664 9.0484 21.0213C8.45993 21.039 7.87168 20.9795 7.29789 20.8443C7.05134 20.7937 6.80478 20.7178 6.78013 20.4142C6.75547 20.1107 7.02668 19.9842 7.27323 19.9083C8.41719 19.6138 9.6053 19.5451 10.7743 19.7059C11.6865 19.8577 12.007 19.6806 12.3522 18.7953C12.7713 17.6569 13.5356 16.7463 14.3246 15.8862C14.4342 15.7626 14.5825 15.6821 14.7437 15.6585C15.0642 15.6079 15.2615 15.9115 15.1629 16.2656C14.8936 17.2474 14.3745 18.1379 13.6589 18.8459C13.2398 19.2759 12.8453 19.7312 12.3029 20.0095C12.1796 20.0601 12.1796 20.1613 12.2289 20.2625C12.3024 20.3946 12.3848 20.5214 12.4755 20.6419C12.6234 20.7937 12.7467 20.7937 12.8453 20.5913C13.2398 19.8577 13.8561 19.3771 14.4972 18.8964C14.5664 18.8222 14.6594 18.7761 14.7591 18.7668C14.8589 18.7575 14.9585 18.7856 15.0396 18.8459C15.2368 19.0229 15.1136 19.2 15.0149 19.3518C14.6451 20.0854 14.0287 20.5407 13.363 20.9202C12.9193 21.1731 12.9193 21.1478 13.2151 21.5526C13.6589 22.1344 14.1027 22.7415 14.5465 23.3486C14.5881 23.4099 14.649 23.4546 14.7191 23.4751Z" fill="#7FA5A4"/>
<path d="M5.17752 15.5067C6.4761 15.4795 7.76934 15.6849 8.99907 16.1138C9.54148 16.3162 9.73872 16.215 9.862 15.6079C10.1825 13.8372 10.9961 12.2941 11.9577 10.8269C12.0997 10.6 12.3063 10.4234 12.5494 10.3209C12.9685 10.1439 13.1904 10.2704 13.2151 10.751C13.2626 11.4687 13.1177 12.1861 12.796 12.8253C12.2743 14.0453 11.5669 15.1724 10.7003 16.1644C10.2311 16.681 9.60553 17.0198 8.9251 17.1257C7.79647 17.3491 6.64284 17.4087 5.49804 17.3028C4.76074 17.2204 4.04316 17.0063 3.3777 16.6704C2.95856 16.468 2.93391 16.0632 3.30374 15.785C3.46979 15.666 3.6683 15.604 3.8708 15.6079C4.30437 15.5509 4.74053 15.5171 5.17752 15.5067Z" fill="#7FA5A4"/>
<path d="M6.63221 17.5051C7.80724 17.4661 8.98081 17.6198 10.1086 17.9605C10.6757 18.1375 10.9222 18.0111 11.0455 17.4292C11.44 15.8103 12.2536 14.4443 13.2151 13.1541C13.3623 12.933 13.5804 12.7719 13.8315 12.6988C14.152 12.5976 14.3246 12.6988 14.3739 13.053C14.4068 13.2984 14.39 13.5481 14.3246 13.7866C13.7082 15.9115 12.5741 17.6316 10.651 18.77C10.5524 18.8205 10.4784 18.8964 10.3798 18.8964C9.02376 19.0988 7.64307 19.3012 6.26239 19.0482C5.77191 18.9466 5.29278 18.794 4.83239 18.5929C4.63515 18.517 4.46256 18.4158 4.48722 18.1628C4.48903 18.0493 4.52576 17.9392 4.59218 17.8484C4.6586 17.7575 4.7513 17.6905 4.85705 17.6569C5.20222 17.5051 5.57204 17.5557 5.94187 17.5051H6.63221Z" fill="#7FA5A4"/>
<path d="M6.92823 14.9249C5.53478 14.9688 4.15539 14.6281 2.9341 13.9383C2.68755 13.7865 2.36703 13.6601 2.441 13.2806C2.49031 12.9771 2.78617 12.8 3.22996 12.8253C4.8572 12.9771 6.43513 13.23 7.88978 14.0395C8.43219 14.3431 8.55547 14.2672 8.67874 13.6601C8.99926 12.0158 9.73891 10.5992 10.6512 9.25847C10.7189 9.16859 10.793 9.08403 10.873 9.00551C10.9578 8.9088 11.0703 8.84205 11.1942 8.81479C11.3182 8.78753 11.4474 8.80116 11.5634 8.85373C11.8346 9.00551 11.8099 9.25847 11.7606 9.48614C11.4894 11.3581 10.5772 12.8759 9.29512 14.2166C9.08852 14.4396 8.83998 14.6174 8.56454 14.7391C8.28909 14.8609 7.99245 14.9241 7.69254 14.9249C7.42133 14.9502 7.17478 14.9249 6.92823 14.9249Z" fill="#7FA5A4"/>
<path d="M9.49213 7.31065C9.64006 9.18259 8.94972 10.8269 7.98817 12.3699C7.88873 12.5575 7.73722 12.7106 7.55285 12.8097C7.36848 12.9088 7.15958 12.9494 6.95266 12.9265C5.35008 12.7747 3.82146 12.3699 2.51474 11.3328C2.44077 11.2569 2.34215 11.2063 2.29284 11.1051C2.25083 11.0539 2.2215 10.9931 2.20737 10.9278C2.19323 10.8625 2.1947 10.7946 2.21166 10.73C2.22861 10.6654 2.26054 10.606 2.30473 10.5567C2.34892 10.5075 2.40405 10.47 2.46543 10.4474C2.55821 10.4036 2.65914 10.3809 2.76129 10.3809C2.86343 10.3809 2.96436 10.4036 3.05715 10.4474C4.44914 10.7656 5.77053 11.3491 6.95266 12.1676C7.07593 12.2435 7.19921 12.4205 7.32248 12.3699C7.44576 12.3193 7.37179 12.0917 7.37179 11.9652C7.39645 10.4221 7.84024 8.98022 8.43196 7.58891C8.65386 7.08298 8.90041 7.00709 9.3442 7.20947C9.39351 7.20947 9.39351 7.33595 9.49213 7.31065Z" fill="#7FA5A4"/>
<path d="M7.02671 10.9786C7.02671 11.2316 7.00206 11.3834 6.82947 11.4593C6.65689 11.5352 6.55827 11.4087 6.45965 11.3328C5.527 10.4538 4.80908 9.36188 4.36396 8.14543C4.24068 7.81658 4.11741 7.46243 4.01879 7.13357C3.97458 7.01718 3.97001 6.88888 4.00581 6.76949C4.04162 6.6501 4.1157 6.54662 4.21603 6.47587C4.43793 6.29879 4.65982 6.45057 4.83241 6.57705C5.22721 6.87607 5.54811 7.26597 5.7693 7.71539C6.28291 8.59649 6.66519 9.55146 6.90344 10.5486C6.95739 10.6877 6.99866 10.8317 7.02671 10.9786Z" fill="#7FA5A4"/>
<path d="M13.1084 27.3455H13.3056C13.848 27.3455 13.8727 27.3708 13.7248 27.902C13.6499 28.2357 13.4504 28.526 13.1692 28.7105C12.888 28.8949 12.5475 28.9589 12.2208 28.8885C11.9037 28.8085 11.6214 28.6232 11.4177 28.3613C11.2141 28.0994 11.1006 27.7758 11.0949 27.4408C11.0893 27.1059 11.1919 26.7784 11.3866 26.5095C11.5813 26.2406 11.8573 26.0453 12.1715 25.9542C12.4356 25.8904 12.7125 25.9121 12.9641 26.0163C13.2158 26.1205 13.4298 26.302 13.5768 26.536C13.6261 26.6119 13.7494 26.7131 13.6261 26.7889C13.5798 26.813 13.5264 26.8186 13.4763 26.8046C13.4262 26.7906 13.3829 26.7579 13.3549 26.7131C12.8372 26.1565 12.3934 26.0553 11.9249 26.3336C11.4565 26.6119 11.2839 27.3202 11.4811 27.9273C11.5542 28.1409 11.692 28.3249 11.8744 28.4523C12.0568 28.5798 12.2741 28.6439 12.4946 28.6355C12.7151 28.627 12.9272 28.5463 13.0997 28.4052C13.2723 28.2641 13.3963 28.07 13.4535 27.8514C13.5275 27.6237 13.4535 27.5478 13.2316 27.5731H12.5167C12.418 27.5731 12.3441 27.5478 12.3687 27.4466C12.3934 27.3455 12.4427 27.3455 12.5167 27.3455H13.1084Z" fill="#7FA5A4"/>
<path d="M18.4586 26.966V26.7383C18.4586 26.6981 18.4741 26.6595 18.5019 26.631C18.5296 26.6025 18.5673 26.5865 18.6065 26.5865C18.6457 26.5865 18.6834 26.6025 18.7111 26.631C18.7388 26.6595 18.7544 26.6981 18.7544 26.7383V28.7367C18.7544 28.8126 18.7298 28.8632 18.6311 28.8885C18.5325 28.9138 18.4832 28.8632 18.4586 28.762C18.4339 28.6608 18.4832 28.6103 18.4092 28.5597C17.7436 29.015 17.2505 29.015 16.8806 28.5597C16.7042 28.3178 16.6109 28.0227 16.6154 27.7206C16.6198 27.4185 16.7218 27.1264 16.9053 26.8901C17.2998 26.4601 17.8175 26.4601 18.4586 26.966ZM18.4586 27.7755C18.4586 27.219 18.138 26.8395 17.6696 26.8395C17.2011 26.8395 16.9053 27.219 16.9053 27.7502C16.9053 28.2814 17.2258 28.6608 17.6696 28.6608C17.78 28.6621 17.8893 28.6395 17.9906 28.5944C18.0918 28.5494 18.1827 28.4829 18.2572 28.3993C18.3316 28.3157 18.3881 28.2169 18.4228 28.1094C18.4575 28.0019 18.4697 27.8881 18.4586 27.7755Z" fill="#7FA5A4"/>
<path d="M14.5878 26.8395C14.7111 26.8648 14.7357 26.7889 14.785 26.7636C14.8973 26.6686 15.0322 26.6061 15.1759 26.5824C15.3196 26.5587 15.4668 26.5747 15.6025 26.6289C15.7381 26.683 15.8572 26.7732 15.9476 26.8903C16.0379 27.0073 16.0962 27.147 16.1164 27.2949C16.1616 27.7741 16.1698 28.2562 16.1411 28.7368C16.1411 28.8379 16.1164 28.9391 15.9931 28.9138C15.8698 28.8885 15.8698 28.8127 15.8698 28.7115V27.5984C15.8698 27.1178 15.6233 26.8395 15.2288 26.8648C14.8343 26.8901 14.5878 27.1431 14.5631 27.5984V28.6862C14.5631 28.8127 14.5878 28.9391 14.4152 28.9391C14.2426 28.9391 14.2919 28.8127 14.2919 28.7115V26.0806C14.2919 25.9794 14.2673 25.853 14.4152 25.853C14.5631 25.853 14.5631 25.9794 14.5631 26.1059C14.5845 26.3498 14.5928 26.5947 14.5878 26.8395Z" fill="#7FA5A4"/>
<path d="M19.4448 27.8767V27.1684C19.4448 27.0166 19.4941 26.8142 19.2476 26.8395C19.1736 26.8395 19.1489 26.7889 19.1489 26.713C19.1462 26.6829 19.1549 26.6529 19.1733 26.6293C19.1917 26.6057 19.2183 26.5904 19.2476 26.5865C19.4448 26.5865 19.4448 26.4601 19.4448 26.3083C19.4435 26.2315 19.4572 26.1552 19.4853 26.084C19.5133 26.0128 19.555 25.9481 19.6079 25.8938C19.6609 25.8395 19.7239 25.7967 19.7933 25.768C19.8627 25.7392 19.937 25.7251 20.0119 25.7265C20.0858 25.7265 20.1845 25.7265 20.1845 25.8277C20.1836 25.8635 20.1709 25.898 20.1485 25.9255C20.1261 25.9531 20.0954 25.972 20.0612 25.9794C19.983 26.0024 19.9083 26.0365 19.8393 26.0806C19.7812 26.128 19.7367 26.1907 19.7107 26.262C19.6846 26.3333 19.6779 26.4105 19.6914 26.4854C19.716 26.6371 19.8393 26.5865 19.9379 26.5865C20.0365 26.5865 20.1598 26.5613 20.1598 26.713C20.1598 26.8648 20.0119 26.8395 19.9379 26.8395C19.716 26.8142 19.6667 26.9154 19.6667 27.1178V28.6103C19.6667 28.7367 19.6914 28.8632 19.5188 28.8632C19.3462 28.8632 19.3955 28.7367 19.3955 28.6356C19.4373 28.385 19.4538 28.1307 19.4448 27.8767Z" fill="#7FA5A4"/>
<path d="M9.51683 7.31064C9.39355 7.33593 9.41821 7.23475 9.3689 7.15886C9.41821 7.08297 9.46752 7.10827 9.51683 7.15886C9.56614 7.20945 9.59079 7.26004 9.51683 7.31064Z" fill="#FBFCFC"/>
<path d="M20.6855 28.585C20.7102 28.5597 20.7349 28.5597 20.7595 28.5344V28.6355C20.7349 28.6355 20.7102 28.6103 20.6855 28.585Z" fill="#FBFCFC"/>
<path d="M23.7701 6.63777C23.1003 5.70605 22.2935 4.88679 21.3785 4.20931C20.7426 3.73705 20.0659 3.32553 19.3568 2.9799C19.3568 2.9799 19.3568 3.00014 19.3568 3.01026L18.7897 3.92346C18.7809 3.93816 18.7679 3.94969 18.7525 3.95649C18.737 3.96328 18.7199 3.965 18.7034 3.9614C18.2472 3.86517 17.7981 3.73583 17.3597 3.57437C17.0545 3.46364 16.7549 3.337 16.4623 3.19492C16.4485 3.18896 16.4371 3.17822 16.4302 3.16457C16.4253 3.14894 16.4253 3.13213 16.4302 3.1165L16.6299 2.10464C16.2667 2.04295 15.9004 2.00241 15.5328 1.98322C13.0163 1.85755 10.5371 2.64573 8.53073 4.20931C8.16091 4.48757 8.1116 4.66464 8.25953 5.11998C8.4683 5.77801 8.81312 6.38203 9.27039 6.89073C9.34435 6.96662 9.54159 6.99192 9.39366 7.16899C9.44297 7.06781 9.49228 7.0931 9.49228 7.1437C9.54159 7.19429 9.56625 7.24488 9.49228 7.29548C9.51477 7.2755 9.53962 7.2585 9.56625 7.24488C9.98538 7.54844 10.2812 7.32077 10.6018 7.06781C11.7678 6.10511 13.2039 5.55125 14.6993 5.48751C16.1947 5.42377 17.6707 5.85351 18.9105 6.71366C19.6201 7.22263 20.2446 7.84627 20.7597 8.5603C20.9323 8.78797 21.1295 8.93974 21.4254 8.76267C22.165 8.33263 22.9047 7.95318 23.6197 7.47255C24.0413 7.19429 24.0659 7.04251 23.7701 6.63777Z" fill="#7FA5A4"/>
<path d="M18.3484 3.30118L17.1453 2.88126L17.2809 2.25391L18.7133 2.70924L18.3484 3.30118Z" fill="#7FA5A4"/>
</svg>
