<svg width="36" height="34" viewBox="0 0 36 34" fill="none" xmlns="http://www.w3.org/2000/svg">
<path d="M34.2463 12.4825L23.8324 10.9691L19.1771 1.53136C19.05 1.27296 18.8408 1.06378 18.5824 0.936636C17.9344 0.616714 17.1469 0.883316 16.8229 1.53136L12.1676 10.9691L1.75371 12.4825C1.4666 12.5236 1.2041 12.6589 1.00313 12.864C0.760156 13.1137 0.626269 13.4497 0.630883 13.7981C0.635498 14.1465 0.778236 14.4788 1.02773 14.722L8.5623 22.0679L6.78223 32.4407C6.74048 32.682 6.76719 32.9302 6.8593 33.1571C6.95142 33.384 7.10527 33.5805 7.30341 33.7244C7.50154 33.8683 7.73603 33.9538 7.98029 33.9713C8.22455 33.9887 8.4688 33.9373 8.68535 33.823L18 28.9257L27.3146 33.823C27.5689 33.9583 27.8643 34.0034 28.1473 33.9542C28.8609 33.8312 29.3408 33.1544 29.2178 32.4407L27.4377 22.0679L34.9723 14.722C35.1773 14.521 35.3127 14.2585 35.3537 13.9714C35.4645 13.2536 34.9641 12.5892 34.2463 12.4825Z" fill="#FFD33C"/>
</svg>
